<svg id="visual" viewBox="0 0 1920 1080" width="1920" height="1080" xmlns="http://www.w3.org/2000/svg" xmlns:xlink="http://www.w3.org/1999/xlink" version="1.1"><rect x="0" y="0" width="1920" height="1080" fill="#2E015A"></rect><g fill="#ffffff"><circle r="26" cx="1062" cy="899"></circle><circle r="12" cx="507" cy="486"></circle><circle r="17" cx="1026" cy="791"></circle><circle r="22" cx="169" cy="477"></circle><circle r="16" cx="753" cy="864"></circle><circle r="17" cx="133" cy="565"></circle><circle r="23" cx="689" cy="582"></circle><circle r="12" cx="814" cy="58"></circle><circle r="18" cx="1446" cy="423"></circle><circle r="13" cx="306" cy="295"></circle><circle r="12" cx="1497" cy="149"></circle><circle r="15" cx="1882" cy="1051"></circle><circle r="11" cx="1266" cy="707"></circle><circle r="21" cx="358" cy="156"></circle><circle r="17" cx="153" cy="808"></circle><circle r="24" cx="1793" cy="1000"></circle><circle r="12" cx="548" cy="717"></circle><circle r="18" cx="1339" cy="970"></circle></g></svg>